HIERARCHY
ROOT pelvis
{
  OFFSET 0 100 0
  CHANNELS 6 Xposition Yposition Zposition Zrotation Xrotation Yrotation
  JOINT pelvis_right_femur
  {
    OFFSET -10.78128 -3.44521 -0.5502486
    CHANNELS 3 Zrotation Xrotation Yrotation
    JOINT right_femur_tibia
    {
      OFFSET -0.8047443 -44.0398 -0.1307829
      CHANNELS 3 Zrotation Xrotation Yrotation
      JOINT right_tibia_foot
      {
        OFFSET 3.006224 -47.83518 -5
        CHANNELS 3 Zrotation Xrotation Yrotation
        End Site
        {
          OFFSET 0 -5 15
        }
      }
    }
  }
  JOINT pelvis_left_femur
  {
    OFFSET 10.78128 -3.44521 -0.5502486
    CHANNELS 3 Zrotation Xrotation Yrotation
    JOINT left_femur_tibia
    {
      OFFSET 0.8047443 -44.0398 -0.1307829
      CHANNELS 3 Zrotation Xrotation Yrotation
      JOINT left_tibia_foot
      {
        OFFSET -4.370144 -48.10324 -4.275266
        CHANNELS 3 Zrotation Xrotation Yrotation
        End Site
        {
          OFFSET 0 -5 15
        }
      }
    }
  }
  JOINT pelvis_spine1
  {
    OFFSET 0 6.468898 -3.129235
    CHANNELS 3 Zrotation Xrotation Yrotation
    JOINT spine1
    {
      OFFSET 0 23.15396 4.99043
      CHANNELS 3 Zrotation Xrotation Yrotation
      JOINT spine2
      {
        OFFSET 0 20.79997 -5.064912
        CHANNELS 3 Zrotation Xrotation Yrotation
        JOINT neck
        {
          OFFSET 0 14.38658 9.616178
          CHANNELS 3 Zrotation Xrotation Yrotation
          End Site
          {
            OFFSET 0 20 0
          }
        }
      }
      JOINT right_manubrium
      {
        OFFSET -5.722621 16.35077 3.967754
        CHANNELS 3 Zrotation Xrotation Yrotation
        JOINT right_clavicle
        {
          OFFSET -13.16364 1.694482 -4.693211
          CHANNELS 3 Zrotation Xrotation Yrotation
          JOINT right_humerus
          {
            OFFSET -28.5034 -0.3100689 -2.792744
            CHANNELS 3 Zrotation Xrotation Yrotation
            JOINT right_radius
            {
              OFFSET -25.15693 0.02248979 -1.271978
              CHANNELS 3 Zrotation Xrotation Yrotation
              End Site
              {
                OFFSET -15 0 0
              }
            }
          }
        }
      }
      JOINT left_manubrium
      {
        OFFSET 5.722621 16.35077 3.967754
        CHANNELS 3 Zrotation Xrotation Yrotation
        JOINT left_clavicle
        {
          OFFSET 13.16364 1.694482 -4.693211
          CHANNELS 3 Zrotation Xrotation Yrotation
          JOINT left_humerus
          {
            OFFSET 29.39168 -1.063119 -2.237045
            CHANNELS 3 Zrotation Xrotation Yrotation
            JOINT left_radius
            {
              OFFSET 24.59957 -0.9528479 0.9047498
              CHANNELS 3 Zrotation Xrotation Yrotation
              End Site
              {
                OFFSET 15 -0 -0
              }
            }
          }
        }
      }
    }
  }
}
MOTION
Frames: 17
Frame Time: 0.0416666666667
0 103.5113 0 0.7952097 -1.215514 -0.2706205 4.105189 -15.53503 11.09634 -0 42.31888 -0 -7.489372 -14.69774 -2.953504 -6.803057 10.25384 -23.78691 -0 7.86392 -0 13.24029 -13.82393 30.24027 -3.821876 -4.759701 4.747837 2.588484 10.92437 -7.547457 1.576435 21.80033 6.311419 3.298031 -24.81204 9.210707 7.221633 -20.39162 12.16777 84.83862 35.91614 -17.94507 -0 0 16.42687 -6.769035 7.813205 4.011218 6.044002 -19.85913 -1.324099 -93.70184 21.56449 21.77332 0 0 -11.97187 14.34904 16.52569 -2.878521
0.2868833 103.7136 1.675916 0.5340776 -0.883218 -0.4624476 4.154255 -17.6465 10.21432 -0 41.14341 -0 -7.317646 -13.56319 -2.764901 -6.664484 10.28886 -22.96126 -0 7.204708 -0 12.46712 -14.70984 28.94915 -3.617046 -4.268659 4.596588 2.580382 10.75735 -7.62171 1.523253 21.64066 6.559419 3.364988 -24.88167 9.324772 7.00266 -20.15022 12.07823 84.96767 35.69511 -18.01502 -0 0 16.20827 -7.647467 8.291757 4.453026 6.268711 -20.12607 -1.370879 -93.08848 21.35206 21.04819 0 0 -12.83333 14.32963 16.24214 -2.740471
0.5102025 103.6691 3.246511 -0.8494047 3.106517 -0.6942249 8.057677 -23.98777 12.14971 -0 28.13481 -0 -6.314671 -17.15346 -3.017914 -6.057194 10.08485 -23.51365 -0 8.268919 -0 9.040256 -19.73087 27.49101 -2.993129 -3.53016 5.088903 3.813979 8.61201 -8.26518 1.957781 20.53564 6.114887 3.164146 -27.86564 9.820964 6.638045 -20.24476 11.25956 84.13235 36.09937 -18.71685 -0 0 18.50163 -2.623056 6.304374 2.708458 6.65282 -19.16756 0.6789987 -97.44148 26.75661 25.19684 0 0 -12.76661 8.667436 17.43955 4.057805
0.7210331 103.4015 5.392653 -1.398021 4.367066 -0.6873012 8.915877 -27.98573 11.16947 -0 23.53208 -0 -6.354626 -14.45209 -2.547725 -5.685185 10.2941 -21.82398 -0 9.301003 -0 6.81328 -21.60235 24.71494 -2.63174 -2.720976 4.852534 3.962654 8.193302 -8.436095 1.961494 19.87513 6.457433 3.468081 -28.45186 9.957887 6.41555 -19.53485 11.02647 84.34882 35.99329 -19.15003 -0 0 17.8249 -3.37642 6.950862 3.025989 7.215539 -19.65161 1.040218 -96.70315 26.51404 24.04116 0 0 -13.89161 8.5349 16.76254 4.228631
0.8902824 102.8008 8.889495 -1.744818 4.863297 -0.2495177 8.345205 -32.91736 7.701014 -0 17.62281 -0 -6.441428 -7.386791 -1.968578 -5.240783 11.86652 -17.4919 -0 10.78194 -0 3.12512 -23.36547 19.02469 -2.216474 -1.58496 4.052718 3.932435 8.367834 -8.901276 1.547386 19.17821 7.321762 3.888893 -28.25129 9.752346 5.781219 -18.15015 11.00602 86.01409 34.86677 -21.10484 -0 0 14.38785 -7.669368 9.426924 4.858022 7.797167 -21.34356 0.294855 -93.09823 24.9761 19.91301 0 0 -18.37746 8.49252 14.91527 4.375841
0.9939375 101.8793 13.68692 -1.62681 4.054534 0.4259255 6.815977 -34.77095 3.759206 -0 13.10669 -0 -6.604703 -1.191711 -1.595212 -5.134772 13.97105 -13.36543 -0 12.82926 -0 0.6761999 -23.53183 14.68825 -1.917061 -1.088139 3.266819 3.734949 8.968378 -9.249143 1.050035 19.06288 7.949648 4.034548 -27.32181 9.284084 4.741174 -16.98336 11.14696 88.21987 32.62721 -23.22292 -0 0 10.13025 -12.3744 11.37878 6.855152 8.140892 -23.15951 -0.9531915 -89.15332 22.33479 15.22255 0 0 -23.26011 9.472076 13.32981 3.001228
0.981955 100.7326 19.87749 -1.096506 1.630531 1.132146 5.07671 -32.87341 -0.4479883 -0 8.530946 -0 -6.736689 4.343639 -1.65246 -5.272478 16.69717 -9.163995 -0 17.3562 -0 -1.051488 -21.98594 11.64468 -1.401332 -1.323637 2.516141 3.341775 9.972803 -9.449303 0.5328763 19.72397 8.149026 3.742781 -25.56139 8.498021 2.696621 -16.1638 11.35373 91.28662 28.0715 -25.58766 -0 0 5.008755 -17.49488 12.54256 8.883046 8.052924 -25.05205 -2.984057 -85.4517 19.07382 10.5912 0 0 -28.60157 10.62119 12.34171 1.080221
0.8750597 99.77215 26.83545 -0.5827987 -1.557336 1.564623 4.70432 -27.47009 -2.310867 -0 6.431137 -0 -6.966937 6.134641 -2.215942 -5.248257 17.74875 -7.000003 -0 24.53806 -0 -1.337649 -18.81063 11.58692 -0.6423272 -2.120212 2.326943 2.821343 10.99683 -9.258239 0.3964319 20.89263 7.654929 3.155248 -23.66958 7.793017 0.3729545 -16.26356 11.47415 93.6872 22.96727 -26.52733 -0 0 2.253157 -20.29036 12.25424 9.538542 7.536128 -25.99034 -4.845303 -84.04053 16.82071 8.676537 0 0 -30.63842 11.6864 12.62917 -0.8982072
0.7191063 99.39054 33.81954 -0.4289605 -4.189363 1.54217 5.305796 -20.78407 -1.8464 -0 6.969676 -0 -7.768305 4.380606 -2.851582 -4.629249 15.32953 -6.863624 -0 34.02901 -0 -1.399282 -14.74333 12.84516 0.09489416 -2.544966 2.774763 2.314375 11.6931 -8.700669 0.6328407 21.83014 6.83752 2.793747 -22.32771 7.274257 -1.071992 -16.87654 11.50359 94.57083 19.99104 -25.73846 -0 0 2.662661 -20.31367 11.19572 8.902646 6.864609 -25.77667 -5.794145 -84.77276 16.18987 9.636107 0 0 -28.30311 12.26426 13.32575 -2.208902
0.5355365 99.39821 40.38904 -0.1189621 -5.709413 1.25591 5.137054 -14.93745 -0.5642071 -0 7.591463 -0 -8.339636 0.7778177 -3.632851 -3.959089 10.57219 -7.652857 -0 40.47515 -0 -2.145388 -12.16219 14.11971 -0.1658512 -1.790981 3.358077 1.979659 11.50566 -7.823916 1.073375 22.43016 6.140348 2.838272 -21.36717 6.931747 -0.9878782 -16.83966 11.41572 93.78056 20.64652 -23.68687 -0 0 4.03234 -18.78265 10.14121 8.232204 6.482321 -24.51246 -5.502246 -85.87642 17.21284 10.6255 0 0 -24.06818 11.48268 13.3022 -1.835132
0.2974154 99.43378 46.63259 0.4651201 -6.901855 0.8912605 4.443598 -10.08538 0.664484 -0 7.686274 -0 -7.990378 -2.661237 -4.753116 -3.628408 6.345404 -8.118654 -0 43.08213 -0 -3.221714 -11.2226 15.4676 -1.033466 -0.6584618 3.696758 1.762198 10.80314 -6.902611 1.599001 23.05331 5.382169 2.806985 -20.09289 6.576166 -0.4751687 -16.18269 11.15132 92.39493 22.04356 -21.21398 -0 0 4.940785 -17.10505 9.055426 7.999578 6.333599 -22.8411 -4.707147 -86.35506 18.75274 10.21543 0 0 -20.5076 9.815796 12.64622 -0.3845772
0.002190923 99.34859 52.76575 1.053782 -8.203686 0.5037842 3.752343 -6.433286 1.76513 -0 8.51394 -0 -6.712729 -5.250395 -6.153103 -3.51132 3.698815 -8.005147 -0 43.21096 -0 -4.189905 -11.21491 16.82856 -1.883366 0.2749544 3.799009 1.567975 10.12614 -6.158728 2.163649 23.65349 4.501366 2.524049 -18.37715 6.215302 -0.1698312 -15.41321 10.78516 91.08891 22.38035 -18.83538 -0 0 5.779305 -15.94487 8.076343 8.072651 6.236814 -21.23163 -4.03466 -86.29862 20.00101 8.954359 0 0 -17.95005 7.921734 11.66101 1.433413
-0.3261742 99.21458 58.91548 1.460241 -9.460044 0.09776933 3.305413 -3.67066 2.789792 -0 10.54898 -0 -5.085047 -7.228547 -7.430313 -3.426444 1.902191 -7.595281 -0 42.92948 -0 -5.002883 -11.33297 17.88996 -2.43725 0.9012862 3.869117 1.35025 9.666373 -5.594319 2.692345 24.09962 3.619646 2.131461 -16.61216 5.8988 -0.04344209 -14.8547 10.43342 89.97618 21.83547 -16.73715 -0 0 6.992431 -15.20941 7.299066 8.175906 6.083706 -19.83585 -3.599649 -86.18796 20.80666 7.904627 0 0 -15.90895 6.218043 10.61443 3.180839
-0.6635802 99.10446 65.14767 1.702913 -10.67566 -0.3132289 3.036001 -1.427755 3.743081 -0 13.58603 -0 -3.254545 -8.861728 -8.496776 -3.327693 0.5487309 -7.087519 -0 42.68734 -0 -5.722265 -11.40598 18.68788 -2.718672 1.292485 3.978527 1.082263 9.392542 -5.116921 3.187288 24.41696 2.807111 1.689541 -14.92303 5.698877 -0.05303655 -14.52485 10.12702 89.08009 20.70237 -14.89664 -0 0 8.562344 -14.86236 6.791921 8.234964 5.867164 -18.60249 -3.374642 -86.16815 21.28068 7.306904 0 0 -14.13779 4.743132 9.643523 4.77328
-0.9858918 99.09192 71.48608 1.798836 -11.83672 -0.7251771 2.901263 0.6276385 4.623777 -0 17.33084 -0 -1.304907 -10.33296 -9.269913 -3.187349 -0.6955415 -6.614551 -0 42.71819 -0 -6.420027 -11.3504 19.29955 -2.74866 1.510497 4.179309 0.7491457 9.251518 -4.639245 3.64969 24.64327 2.127197 1.233417 -13.4149 5.676586 -0.1580878 -14.42685 9.884479 88.36673 19.23562 -13.25127 -0 0 10.43228 -14.89791 6.617624 8.226536 5.587495 -17.46959 -3.311601 -86.34701 21.55169 7.322912 0 0 -12.50764 3.476834 8.868034 6.211783
-1.266868 99.22936 77.93701 1.760628 -12.94169 -1.138124 2.84777 2.644683 5.412809 -0 21.52938 -0 0.7824285 -11.6648 -9.712949 -2.997433 -1.945854 -6.24069 -0 42.90037 -0 -7.133117 -11.18753 19.79895 -2.54221 1.598676 4.489223 0.3424712 9.206132 -4.107254 4.075769 24.8023 1.650394 0.773277 -12.16293 5.897918 -0.3472465 -14.56135 9.718464 87.81999 17.57735 -11.77245 -0 0 12.51866 -15.41659 6.889288 8.186461 5.255491 -16.40122 -3.3952 -86.76285 21.69288 8.017844 0 0 -11.0167 2.373703 8.363557 7.538812
-1.477352 99.5477 84.49494 1.598056 -13.93025 -1.56031 2.832322 4.696303 6.089496 -0 25.7966 -0 2.993958 -12.79319 -9.780406 -2.752839 -3.316151 -5.996905 -0 43.07861 -0 -7.868636 -10.93322 20.22111 -2.118545 1.58752 4.928331 -0.1295479 9.238414 -3.502045 4.439088 24.88682 1.460229 0.337982 -11.2746 6.398605 -0.5827222 -14.94572 9.650828 87.38651 15.92462 -10.46637 -0 0 14.73044 -16.5317 7.733559 8.19129 4.889177 -15.40324 -3.611335 -87.4446 21.74525 9.46433 0 0 -9.742254 1.384384 8.163278 8.819103
